<mxfile host="app.diagrams.net" modified="2023-11-10T17:54:24.654Z" agent="Mozilla/5.0 (Windows NT 10.0; Win64; x64) AppleWebKit/537.36 (KHTML, like Gecko) Chrome/119.0.0.0 Safari/537.36" etag="ol2bd6cnEfy27vEoCr2J" version="22.1.0" type="device">
  <diagram name="PÃ¡gina-1" id="YUqVriEFhFfQDQxuba4E">
    <mxGraphModel dx="1050" dy="542" grid="1" gridSize="10" guides="1" tooltips="1" connect="1" arrows="1" fold="1" page="1" pageScale="1" pageWidth="827" pageHeight="1169" math="0" shadow="0">
      <root>
        <mxCell id="0" />
        <mxCell id="1" parent="0" />
        <mxCell id="_WcvUVsXw9An4ZOf-BJx-1" value="Match" style="ellipse;whiteSpace=wrap;html=1;" vertex="1" parent="1">
          <mxGeometry x="510" y="30" width="120" height="70" as="geometry" />
        </mxCell>
        <mxCell id="_WcvUVsXw9An4ZOf-BJx-2" value="Users" style="ellipse;whiteSpace=wrap;html=1;" vertex="1" parent="1">
          <mxGeometry x="270" y="310" width="120" height="70" as="geometry" />
        </mxCell>
        <mxCell id="_WcvUVsXw9An4ZOf-BJx-3" value="User" style="ellipse;whiteSpace=wrap;html=1;" vertex="1" parent="1">
          <mxGeometry x="510" y="310" width="120" height="70" as="geometry" />
        </mxCell>
        <mxCell id="_WcvUVsXw9An4ZOf-BJx-4" value="Matches" style="ellipse;whiteSpace=wrap;html=1;" vertex="1" parent="1">
          <mxGeometry x="280" y="30" width="120" height="70" as="geometry" />
        </mxCell>
        <mxCell id="_WcvUVsXw9An4ZOf-BJx-5" value="Home" style="ellipse;whiteSpace=wrap;html=1;" vertex="1" parent="1">
          <mxGeometry x="70" y="200" width="120" height="70" as="geometry" />
        </mxCell>
        <mxCell id="_WcvUVsXw9An4ZOf-BJx-6" value="Stats" style="ellipse;whiteSpace=wrap;html=1;" vertex="1" parent="1">
          <mxGeometry x="70" y="330" width="120" height="70" as="geometry" />
        </mxCell>
        <mxCell id="_WcvUVsXw9An4ZOf-BJx-7" value="" style="endArrow=classic;html=1;rounded=0;" edge="1" parent="1" source="_WcvUVsXw9An4ZOf-BJx-5" target="_WcvUVsXw9An4ZOf-BJx-1">
          <mxGeometry width="50" height="50" relative="1" as="geometry">
            <mxPoint x="390" y="240" as="sourcePoint" />
            <mxPoint x="440" y="190" as="targetPoint" />
          </mxGeometry>
        </mxCell>
        <mxCell id="_WcvUVsXw9An4ZOf-BJx-8" value="rel=start" style="edgeLabel;html=1;align=center;verticalAlign=middle;resizable=0;points=[];labelBackgroundColor=none;fontSize=13;fontStyle=1;fontColor=#333333;rotation=-25;" vertex="1" connectable="0" parent="_WcvUVsXw9An4ZOf-BJx-7">
          <mxGeometry x="-0.1264" y="2" relative="1" as="geometry">
            <mxPoint x="12" y="-17" as="offset" />
          </mxGeometry>
        </mxCell>
        <mxCell id="_WcvUVsXw9An4ZOf-BJx-9" value="" style="endArrow=classic;html=1;rounded=0;" edge="1" parent="1" source="_WcvUVsXw9An4ZOf-BJx-5" target="_WcvUVsXw9An4ZOf-BJx-4">
          <mxGeometry width="50" height="50" relative="1" as="geometry">
            <mxPoint x="190" y="226" as="sourcePoint" />
            <mxPoint x="530" y="94" as="targetPoint" />
          </mxGeometry>
        </mxCell>
        <mxCell id="_WcvUVsXw9An4ZOf-BJx-10" value="rel=matches" style="edgeLabel;html=1;align=center;verticalAlign=middle;resizable=0;points=[];labelBackgroundColor=none;fontSize=13;fontStyle=1;fontColor=#333333;rotation=-40;" vertex="1" connectable="0" parent="_WcvUVsXw9An4ZOf-BJx-9">
          <mxGeometry x="-0.1264" y="2" relative="1" as="geometry">
            <mxPoint x="2" y="-7" as="offset" />
          </mxGeometry>
        </mxCell>
        <mxCell id="_WcvUVsXw9An4ZOf-BJx-11" value="" style="endArrow=classic;html=1;rounded=0;" edge="1" parent="1" source="_WcvUVsXw9An4ZOf-BJx-1" target="_WcvUVsXw9An4ZOf-BJx-3">
          <mxGeometry width="50" height="50" relative="1" as="geometry">
            <mxPoint x="200" y="236" as="sourcePoint" />
            <mxPoint x="540" y="104" as="targetPoint" />
          </mxGeometry>
        </mxCell>
        <mxCell id="_WcvUVsXw9An4ZOf-BJx-12" value="rel=playerWhite" style="edgeLabel;html=1;align=center;verticalAlign=middle;resizable=0;points=[];labelBackgroundColor=none;fontSize=13;fontStyle=1;fontColor=#333333;rotation=0;" vertex="1" connectable="0" parent="_WcvUVsXw9An4ZOf-BJx-11">
          <mxGeometry x="-0.1264" y="2" relative="1" as="geometry">
            <mxPoint x="58" y="-2" as="offset" />
          </mxGeometry>
        </mxCell>
        <mxCell id="_WcvUVsXw9An4ZOf-BJx-13" value="" style="endArrow=classic;html=1;rounded=0;" edge="1" parent="1">
          <mxGeometry width="50" height="50" relative="1" as="geometry">
            <mxPoint x="560" y="100" as="sourcePoint" />
            <mxPoint x="560" y="310" as="targetPoint" />
          </mxGeometry>
        </mxCell>
        <mxCell id="_WcvUVsXw9An4ZOf-BJx-14" value="rel=playerBlack" style="edgeLabel;html=1;align=center;verticalAlign=middle;resizable=0;points=[];labelBackgroundColor=none;fontSize=13;fontStyle=1;fontColor=#333333;rotation=0;" vertex="1" connectable="0" parent="_WcvUVsXw9An4ZOf-BJx-13">
          <mxGeometry x="-0.1264" y="2" relative="1" as="geometry">
            <mxPoint x="-62" y="-2" as="offset" />
          </mxGeometry>
        </mxCell>
        <mxCell id="_WcvUVsXw9An4ZOf-BJx-15" value="" style="endArrow=classic;html=1;rounded=0;" edge="1" parent="1" source="_WcvUVsXw9An4ZOf-BJx-2" target="_WcvUVsXw9An4ZOf-BJx-3">
          <mxGeometry width="50" height="50" relative="1" as="geometry">
            <mxPoint x="190" y="226" as="sourcePoint" />
            <mxPoint x="530" y="94" as="targetPoint" />
          </mxGeometry>
        </mxCell>
        <mxCell id="_WcvUVsXw9An4ZOf-BJx-16" value="rel=user" style="edgeLabel;html=1;align=center;verticalAlign=middle;resizable=0;points=[];labelBackgroundColor=none;fontSize=13;fontStyle=1;fontColor=#333333;rotation=0;" vertex="1" connectable="0" parent="_WcvUVsXw9An4ZOf-BJx-15">
          <mxGeometry x="-0.1264" y="2" relative="1" as="geometry">
            <mxPoint x="5" y="-8" as="offset" />
          </mxGeometry>
        </mxCell>
        <mxCell id="_WcvUVsXw9An4ZOf-BJx-19" value="" style="endArrow=classic;html=1;rounded=0;" edge="1" parent="1" source="_WcvUVsXw9An4ZOf-BJx-5" target="_WcvUVsXw9An4ZOf-BJx-2">
          <mxGeometry width="50" height="50" relative="1" as="geometry">
            <mxPoint x="400" y="355" as="sourcePoint" />
            <mxPoint x="520" y="355" as="targetPoint" />
          </mxGeometry>
        </mxCell>
        <mxCell id="_WcvUVsXw9An4ZOf-BJx-20" value="rel=users" style="edgeLabel;html=1;align=center;verticalAlign=middle;resizable=0;points=[];labelBackgroundColor=none;fontSize=13;fontStyle=1;fontColor=#333333;rotation=30;" vertex="1" connectable="0" parent="_WcvUVsXw9An4ZOf-BJx-19">
          <mxGeometry x="-0.1264" y="2" relative="1" as="geometry">
            <mxPoint x="5" y="-8" as="offset" />
          </mxGeometry>
        </mxCell>
        <mxCell id="_WcvUVsXw9An4ZOf-BJx-21" value="" style="endArrow=classic;html=1;rounded=0;" edge="1" parent="1" source="_WcvUVsXw9An4ZOf-BJx-5" target="_WcvUVsXw9An4ZOf-BJx-6">
          <mxGeometry width="50" height="50" relative="1" as="geometry">
            <mxPoint x="410" y="365" as="sourcePoint" />
            <mxPoint x="530" y="365" as="targetPoint" />
          </mxGeometry>
        </mxCell>
        <mxCell id="_WcvUVsXw9An4ZOf-BJx-22" value="rel=stats" style="edgeLabel;html=1;align=center;verticalAlign=middle;resizable=0;points=[];labelBackgroundColor=none;fontSize=13;fontStyle=1;fontColor=#333333;rotation=0;" vertex="1" connectable="0" parent="_WcvUVsXw9An4ZOf-BJx-21">
          <mxGeometry x="-0.1264" y="2" relative="1" as="geometry">
            <mxPoint x="28" y="4" as="offset" />
          </mxGeometry>
        </mxCell>
        <mxCell id="_WcvUVsXw9An4ZOf-BJx-23" value="Top" style="ellipse;whiteSpace=wrap;html=1;" vertex="1" parent="1">
          <mxGeometry x="70" y="470" width="120" height="70" as="geometry" />
        </mxCell>
        <mxCell id="_WcvUVsXw9An4ZOf-BJx-24" value="" style="endArrow=classic;html=1;rounded=0;" edge="1" parent="1" source="_WcvUVsXw9An4ZOf-BJx-6" target="_WcvUVsXw9An4ZOf-BJx-23">
          <mxGeometry width="50" height="50" relative="1" as="geometry">
            <mxPoint x="140" y="280" as="sourcePoint" />
            <mxPoint x="140" y="420" as="targetPoint" />
          </mxGeometry>
        </mxCell>
        <mxCell id="_WcvUVsXw9An4ZOf-BJx-25" value="rel=top" style="edgeLabel;html=1;align=center;verticalAlign=middle;resizable=0;points=[];labelBackgroundColor=none;fontSize=13;fontStyle=1;fontColor=#333333;rotation=0;" vertex="1" connectable="0" parent="_WcvUVsXw9An4ZOf-BJx-24">
          <mxGeometry x="-0.1264" y="2" relative="1" as="geometry">
            <mxPoint x="28" y="-6" as="offset" />
          </mxGeometry>
        </mxCell>
        <mxCell id="_WcvUVsXw9An4ZOf-BJx-26" value="" style="endArrow=classic;html=1;rounded=0;" edge="1" parent="1" source="_WcvUVsXw9An4ZOf-BJx-23" target="_WcvUVsXw9An4ZOf-BJx-2">
          <mxGeometry width="50" height="50" relative="1" as="geometry">
            <mxPoint x="140" y="490" as="sourcePoint" />
            <mxPoint x="140" y="570" as="targetPoint" />
          </mxGeometry>
        </mxCell>
        <mxCell id="_WcvUVsXw9An4ZOf-BJx-27" value="rel=users" style="edgeLabel;html=1;align=center;verticalAlign=middle;resizable=0;points=[];labelBackgroundColor=none;fontSize=13;fontStyle=1;fontColor=#333333;rotation=-45;" vertex="1" connectable="0" parent="_WcvUVsXw9An4ZOf-BJx-26">
          <mxGeometry x="-0.1264" y="2" relative="1" as="geometry">
            <mxPoint x="21" as="offset" />
          </mxGeometry>
        </mxCell>
        <mxCell id="_WcvUVsXw9An4ZOf-BJx-28" value="" style="endArrow=classic;html=1;rounded=0;" edge="1" parent="1">
          <mxGeometry width="50" height="50" relative="1" as="geometry">
            <mxPoint x="190" y="226" as="sourcePoint" />
            <mxPoint x="530" y="94" as="targetPoint" />
          </mxGeometry>
        </mxCell>
        <mxCell id="_WcvUVsXw9An4ZOf-BJx-29" value="rel=join" style="edgeLabel;html=1;align=center;verticalAlign=middle;resizable=0;points=[];labelBackgroundColor=none;fontSize=13;fontStyle=1;fontColor=#333333;rotation=-25;" vertex="1" connectable="0" parent="_WcvUVsXw9An4ZOf-BJx-28">
          <mxGeometry x="-0.1264" y="2" relative="1" as="geometry">
            <mxPoint x="33" y="3" as="offset" />
          </mxGeometry>
        </mxCell>
      </root>
    </mxGraphModel>
  </diagram>
</mxfile>
